# xmcd
#
# Track frame offsets:
#	150
#	3466
#	21842
#	37679
#	62495
#	79303
#	96542
#	113229
#	131419
#	140520
#	156588
#	172460
#	191523
#	215040
#
# Disc length: 3080 seconds
#
# Revision: 2
# Processed by: cddbd v1.5.2PL0 Copyright (c) Steve Scherf et al.
# Submitted via: EZCDDA 4.3.2
#
DISCID=ca0c060e
DTITLE=Lordi - Deadache
DYEAR=1900
DGENRE=
TTITLE0=SCG IV
TTITLE1=Girls Go Chopping
TTITLE2=Bite It Like A Bulldog
TTITLE3=Monsters Keep Me Company
TTITLE4=Man Skin Boot
TTITLE5=Dr. Sin Is In
TTITLE6=The Ghosts Of Heceta Head
TTITLE7=Evilyn
TTITLE8=The Rebirth Of The Countess
TTITLE9=Raise Hell In Heaven
TTITLE10=Deadache
TTITLE11=The Devil Hides Behind Her Smi
TTITLE12=Missing Miss Charlene
TTITLE13=Hate At First Sight
EXTD=
EXTT0=
EXTT1=
EXTT2=
EXTT3=
EXTT4=
EXTT5=
EXTT6=
EXTT7=
EXTT8=
EXTT9=
EXTT10=
EXTT11=
EXTT12=
EXTT13=
PLAYORDER=
